<svg xmlns="http://www.w3.org/2000/svg" viewBox="0 0 573 593.48"><defs><style>.cls-1{opacity:0.39;}.cls-2{fill:#dd6955;}</style></defs><g id="Layer_2" data-name="Layer 2"><g id="Layer_9" data-name="Layer 9"><g class="cls-1"><path class="cls-2" d="M242.47,148.88a50.83,50.83,0,0,0,31.33,23.49,51.13,51.13,0,1,0-31.33-23.49Z"/><path class="cls-2" d="M341.92,24.83a10.23,10.23,0,0,0-14.08,3.33h0L317.08,45.59a10.23,10.23,0,0,0,17.23,11l.18-.29L345.25,38.9A10.22,10.22,0,0,0,341.92,24.83Z"/><path class="cls-2" d="M243.24,30a10.23,10.23,0,0,0-18,9.71l9.72,18A10.23,10.23,0,0,0,253,48Z"/><path class="cls-2" d="M174,123.74a10.23,10.23,0,0,0,9.92,10.53l20.48.61h.3a10.24,10.24,0,0,0,.3-20.47l-20.47-.6a10.22,10.22,0,0,0-10.53,9.9Z"/><path class="cls-2" d="M231.05,220.73a10.23,10.23,0,0,0,14.08-3.33L255.89,200a10.23,10.23,0,0,0-17.23-11,1.75,1.75,0,0,0-.18.29l-10.76,17.43A10.24,10.24,0,0,0,231.05,220.73Z"/><path class="cls-2" d="M324.17,183.71A10.23,10.23,0,0,0,320,197.57l9.71,18a10.23,10.23,0,0,0,18-9.71l-9.72-18A10.23,10.23,0,0,0,324.17,183.71Z"/><path class="cls-2" d="M399,121.81a10.23,10.23,0,0,0-9.93-10.52l-20.47-.6h-.31a10.23,10.23,0,1,0-.3,20.46l20.48.6h.3A10.23,10.23,0,0,0,399,121.81Z"/><path class="cls-2" d="M378.11,56.61,342.9,77.47A10.23,10.23,0,1,0,353.11,95.2l.22-.12,35.21-20.86a10.23,10.23,0,0,0-10.32-17.67l-.11.06Z"/><path class="cls-2" d="M285.68,61.39h.12a10.22,10.22,0,0,0,10.11-10.34l-.46-40.93a10.23,10.23,0,1,0-20.46.23l.46,40.93A10.23,10.23,0,0,0,285.68,61.39Z"/><path class="cls-2" d="M179.47,62.58a10.24,10.24,0,0,0,3.89,13.94h0L219,96.58a10.23,10.23,0,0,0,10-17.83L193.4,58.68A10.22,10.22,0,0,0,179.47,62.58Z"/><path class="cls-2" d="M233.66,154.07a10.23,10.23,0,0,0-14-3.59l-35.21,20.86A10.23,10.23,0,1,0,194.87,189l35.21-20.86A10.24,10.24,0,0,0,233.66,154.07Z"/><path class="cls-2" d="M287.29,194.43h-.12a10.23,10.23,0,0,0-10.12,10.34l.46,40.93a10.24,10.24,0,0,0,10.24,10.12h.11A10.25,10.25,0,0,0,298,245.47l-.46-40.93A10.22,10.22,0,0,0,287.29,194.43Z"/><path class="cls-2" d="M384.57,188.2a10.24,10.24,0,0,0,5-19.16L353.93,149a10.23,10.23,0,1,0-10,17.83l35.68,20.07A10.18,10.18,0,0,0,384.57,188.2Z"/><path class="cls-2" d="M347.89,419.56A10.13,10.13,0,0,1,349,415l9.15-18.3V378.63H344l-16.56,33.11v58.95h20.46Z"/><polygon class="cls-2" points="388.82 443.43 370.11 418.48 368.36 421.97 368.36 470.69 388.82 470.69 388.82 443.43"/><rect class="cls-2" x="368.36" y="491.16" width="20.46" height="20.49"/><rect class="cls-2" x="409.29" y="491.16" width="20.46" height="20.49"/><polygon class="cls-2" points="429.75 409.3 388.8 409.3 404.17 429.79 429.75 429.77 429.75 409.3"/><rect class="cls-2" x="184.18" y="491.16" width="20.46" height="20.49"/><polygon class="cls-2" points="184.18 470.69 204.64 470.69 204.64 421.97 202.9 418.48 184.18 443.43 184.18 470.69"/><rect class="cls-2" x="225.11" y="491.16" width="20.46" height="20.49"/><path class="cls-2" d="M225.11,419.56v51.13h20.46V411.74L229,378.63H214.88v18.05L224,415A10.25,10.25,0,0,1,225.11,419.56Z"/><rect class="cls-2" x="327.43" y="491.16" width="20.46" height="20.49"/><polygon class="cls-2" points="501.38 286.54 467.82 286.54 450.22 339.36 450.22 381.44 501.38 352.2 501.38 286.54"/><rect class="cls-2" x="501.38" y="470.69" width="30.7" height="40.95"/><polygon class="cls-2" points="552.54 368.37 521.84 368.37 521.84 388.86 552.54 388.84 552.54 368.37"/><polygon class="cls-2" points="501.38 450.23 535.98 450.23 552.54 417.12 552.54 409.31 517.09 409.32 501.38 432.89 501.38 450.23"/><polygon class="cls-2" points="552.54 308.66 545.16 286.54 521.84 286.54 521.84 347.91 552.54 347.91 552.54 308.66"/><polygon class="cls-2" points="429.75 450.24 409.29 450.25 409.29 470.69 429.75 470.69 429.75 450.24"/><polygon class="cls-2" points="480.91 475.57 450.22 487.85 450.22 511.65 480.91 511.65 480.91 475.57"/><polygon class="cls-2" points="194.41 371.49 178.7 347.93 143.25 347.93 143.25 388.84 194.41 388.84 194.41 371.49"/><path class="cls-2" d="M480.91,429.79a10,10,0,0,1,.11-1.44l-30.8,17.59v19.87l30.69-12.28Z"/><polygon class="cls-2" points="501.38 375.77 450.22 405.01 450.22 422.37 501.38 393.15 501.38 375.77"/><polygon class="cls-2" points="429.75 347.93 394.3 347.93 378.59 371.49 378.59 388.84 429.75 388.84 429.75 347.93"/><rect class="cls-2" x="40.93" y="470.69" width="30.7" height="40.95"/><polygon class="cls-2" points="71.63 450.23 71.63 432.89 55.91 409.32 20.46 409.31 20.46 417.12 37.02 450.23 71.63 450.23"/><polygon class="cls-2" points="184.2 409.3 143.25 409.3 143.25 429.77 168.83 429.79 184.2 409.3"/><polygon class="cls-2" points="51.16 286.54 27.84 286.54 20.46 308.66 20.46 347.91 51.16 347.91 51.16 286.54"/><polygon class="cls-2" points="561.73 444.5 552.54 462.88 552.54 511.65 573 511.65 573 472.69 561.73 444.5"/><polygon class="cls-2" points="20.46 462.88 11.28 444.5 0 472.69 0 511.65 20.46 511.65 20.46 462.88"/><path class="cls-2" d="M0,552.55H30.7a10.24,10.24,0,0,1,0,20.47H0v20.46H573V573H521.84a10.24,10.24,0,0,1,0-20.47H573V532.11H0Zm470.68,0h10.23a10.24,10.24,0,1,1,0,20.47H470.68a10.24,10.24,0,0,1,0-20.47Zm-81.86,0h40.93a10.24,10.24,0,0,1,0,20.47H388.82a10.24,10.24,0,0,1,0-20.47Zm-51.16,0h10.23a10.24,10.24,0,1,1,0,20.47H337.66a10.24,10.24,0,0,1,0-20.47Zm-61.39,0h20.46a10.24,10.24,0,1,1,0,20.47H276.27a10.24,10.24,0,0,1,0-20.47Zm-92.09,0h51.16a10.24,10.24,0,0,1,0,20.47H184.18a10.24,10.24,0,0,1,0-20.47Zm-51.16,0h10.23a10.24,10.24,0,0,1,0,20.47H133a10.24,10.24,0,0,1,0-20.47Zm-61.39,0H92.09a10.24,10.24,0,0,1,0,20.47H71.63a10.24,10.24,0,1,1,0-20.47Z"/><polygon class="cls-2" points="51.16 368.37 20.46 368.37 20.46 388.84 51.16 388.86 51.16 368.37"/><polygon class="cls-2" points="92.09 511.65 122.79 511.65 122.79 487.85 92.09 475.57 92.09 511.65"/><polygon class="cls-2" points="122.79 339.36 105.18 286.54 71.63 286.54 71.63 352.2 122.79 381.44 122.79 339.36"/><rect class="cls-2" x="143.25" y="491.16" width="20.46" height="20.49"/><polygon class="cls-2" points="163.72 450.25 143.25 450.24 143.25 470.69 163.72 470.69 163.72 450.25"/><path class="cls-2" d="M122.79,445.94,92,428.35a10,10,0,0,1,.11,1.44v23.74l30.7,12.28Z"/><polygon class="cls-2" points="122.79 405.01 71.63 375.77 71.63 393.15 122.79 422.37 122.79 405.01"/><path class="cls-2" d="M562.77,214.89H501.38a10.23,10.23,0,0,1,0-20.46h1.75a10.24,10.24,0,0,0,9.65-6.83,20.47,20.47,0,0,1,38.59,0,10.23,10.23,0,0,0,9.65,6.83h1.75a10.23,10.23,0,1,1,0,20.46Z"/><path class="cls-2" d="M10.23,133H12a10.22,10.22,0,0,0,9.64-6.82,20.46,20.46,0,0,1,38.59,0A10.24,10.24,0,0,0,69.87,133h1.76a10.24,10.24,0,0,1,0,20.47H10.23a10.24,10.24,0,0,1,0-20.47Z"/></g></g></g></svg>