<svg xmlns="http://www.w3.org/2000/svg" viewBox="0 0 594.35 554.69"><defs><style>.cls-1{opacity:0.23;}.cls-2{fill:#dd6955;}</style></defs><g id="Layer_2" data-name="Layer 2"><g id="contentbox"><g class="cls-1"><path class="cls-2" d="M249.57,105.12a49.52,49.52,0,1,0,23.64-29.63,49.54,49.54,0,0,0-23.64,29.63Z"/><path class="cls-2" d="M353.66,25.69a9.91,9.91,0,0,0-13.72,2.81L329,45.05A9.91,9.91,0,1,0,345.56,56l10.92-16.55a9.91,9.91,0,0,0-2.81-13.72Z"/><path class="cls-2" d="M258,27.76a9.91,9.91,0,0,0-17.79,8.73l.07.14,8.87,17.73a9.91,9.91,0,0,0,17.72-8.87Z"/><path class="cls-2" d="M188.23,116.49a9.9,9.9,0,0,0,9.3,10.48l19.79,1.18c.2,0,.4,0,.6,0a9.9,9.9,0,0,0,.58-19.79l-19.79-1.18a9.89,9.89,0,0,0-10.48,9.27Z"/><path class="cls-2" d="M240.65,212a9.92,9.92,0,0,0,13.73-2.81h0l10.92-16.56a9.91,9.91,0,1,0-16.52-10.94l0,0-10.92,16.55A9.91,9.91,0,0,0,240.65,212Z"/><path class="cls-2" d="M331.84,178.91a9.9,9.9,0,0,0-4.42,13.29l8.87,17.74a9.91,9.91,0,0,0,17.79-8.73.91.91,0,0,1-.07-.14l-8.87-17.73a9.92,9.92,0,0,0-13.29-4.43Z"/><path class="cls-2" d="M406.09,121.2a9.89,9.89,0,0,0-9.3-10.47h0L377,109.54a9.91,9.91,0,1,0-1.34,19.77h.16l19.79,1.18.6,0A9.9,9.9,0,0,0,406.09,121.2Z"/><path class="cls-2" d="M387.75,57.5,353.07,76.66A9.91,9.91,0,0,0,362.6,94l0,0,34.68-19.16a9.91,9.91,0,1,0-9.58-17.34Z"/><path class="cls-2" d="M298.48,59.43a9.91,9.91,0,0,0,9.91-9.72l.75-39.62a9.91,9.91,0,1,0-19.81-.37l-.75,39.62a9.89,9.89,0,0,0,9.71,10.09Z"/><path class="cls-2" d="M195.36,57.47a9.91,9.91,0,0,0,3.37,13.59h0l33.92,20.47A9.91,9.91,0,0,0,243.13,74.7l-.24-.14L209,54.1a9.9,9.9,0,0,0-13.6,3.36Z"/><path class="cls-2" d="M245.13,147.58a9.91,9.91,0,0,0-13.46-3.88h0L197,162.85a9.91,9.91,0,1,0,9.57,17.35L241.25,161A9.9,9.9,0,0,0,245.13,147.58Z"/><path class="cls-2" d="M285.94,188l-.76,39.61a9.91,9.91,0,0,0,9.71,10.1h.2A9.91,9.91,0,0,0,305,228l.75-39.62a9.91,9.91,0,1,0-19.81-.38Z"/><path class="cls-2" d="M390.46,185a9.91,9.91,0,0,0,5.13-18.39l-33.93-20.46a9.91,9.91,0,0,0-10.23,17l33.93,20.46A9.86,9.86,0,0,0,390.46,185Z"/><path class="cls-2" d="M525,168.36a9.91,9.91,0,0,0,0-19.81H485.38a9.91,9.91,0,0,0,0,19.81Z"/><path class="cls-2" d="M584.44,188.17H445.76a9.91,9.91,0,0,0,0,19.82H584.44a9.91,9.91,0,0,0,0-19.82Z"/><path class="cls-2" d="M574.54,247.61a9.91,9.91,0,0,0,0-19.81H534.91a9.91,9.91,0,0,0,0,19.81Z"/><path class="cls-2" d="M495.29,247.61a9.91,9.91,0,1,0,0-19.81H465.57a9.91,9.91,0,0,0,0,19.81Z"/><path class="cls-2" d="M9.91,148.55H79.25a9.91,9.91,0,0,0,0-19.81H9.91a9.91,9.91,0,1,0,0,19.81Z"/><path class="cls-2" d="M99.06,89.12H69.34a9.91,9.91,0,1,0,0,19.81H99.06a9.91,9.91,0,0,0,0-19.81Z"/><path class="cls-2" d="M584.44,148.55H554.73a9.91,9.91,0,1,0,0,19.81h29.71a9.91,9.91,0,1,0,0-19.81Z"/><path class="cls-2" d="M138.68,138.64a9.9,9.9,0,0,0-9.9-9.9H109a9.91,9.91,0,0,0,0,19.81h19.82A9.9,9.9,0,0,0,138.68,138.64Z"/><path class="cls-2" d="M69.34,168.36a9.91,9.91,0,1,0,0,19.81H109a9.91,9.91,0,1,0,0-19.81Z"/><path class="cls-2" d="M9.91,188.17H29.72a9.91,9.91,0,0,0,0-19.81H9.91a9.91,9.91,0,1,0,0,19.81Z"/><path class="cls-2" d="M9.91,108.93H29.72a9.91,9.91,0,0,0,0-19.81H9.91a9.91,9.91,0,1,0,0,19.81Z"/><path class="cls-2" d="M69.34,525V475.44a29.76,29.76,0,0,1-29.72-29.72,9.91,9.91,0,0,1,19.81,0,9.93,9.93,0,0,0,9.91,9.91V425.91a9.91,9.91,0,0,1,19.81,0v49.53a9.92,9.92,0,0,0,9.91-9.9v-9.91a9.91,9.91,0,1,1,19.81,0v9.91a29.75,29.75,0,0,1-29.72,29.71v21.86L217.44,457.9a89.69,89.69,0,0,0,47-51.8H19.81v143l49.62-22.91A8.52,8.52,0,0,1,69.34,525Z"/><path class="cls-2" d="M431.75,346.67H389.33l2.49,1.66a9.9,9.9,0,1,1-10.9,16.54l-.09-.06L351.11,345l-24.93-16.62L304,339.48l10.09,10.09a9.9,9.9,0,1,1-13.92,14.09l-.08-.08-19.82-19.82h0L253.45,317H230l7.54,37.68a9.91,9.91,0,1,1-19.43,3.89h0L209,313,187.5,298.66l-27.72,13.86,8.42,42.11a9.9,9.9,0,1,1-19.42,3.89h0l-8.68-43.39-30-7.49L77.44,324,68.83,349.8a9.91,9.91,0,0,1-7.45,6.58l-41.57,8.31v21.6H471.38Z"/><path class="cls-2" d="M309.11,407.33l-.25-1.23h-1.78v19.81H287.27V406.1h-2.12a109.59,109.59,0,0,1-59.4,69.79L55,554.69H287.27v-9.91h19.81v9.91h165.4l-116.86-77.9A108.54,108.54,0,0,1,309.11,407.33Zm-2,117.64H287.27V495.25h19.81Zm0-49.53H287.27V445.72h19.81Z"/><polygon class="cls-2" points="479.58 366.48 499.39 386.29 574.54 386.29 574.54 366.48 479.58 366.48"/><path class="cls-2" d="M366.61,460.3,508.2,554.69h66.34V406.1H329.14A88.74,88.74,0,0,0,366.61,460.3Zm118.77-14.58a9.91,9.91,0,0,1,9.91,9.91,9.93,9.93,0,0,0,9.91,9.91V435.82a9.91,9.91,0,1,1,19.81,0v49.53a9.91,9.91,0,0,0,9.9-9.91v-9.9a9.91,9.91,0,1,1,19.82,0v9.9A29.76,29.76,0,0,1,525,505.16V525a9.91,9.91,0,1,1-19.81,0V485.35a29.75,29.75,0,0,1-29.72-29.72A9.91,9.91,0,0,1,485.38,445.72Z"/></g></g></g></svg>