<svg xmlns="http://www.w3.org/2000/svg" viewBox="0 0 579.08 599.76"><defs><style>.cls-1{opacity:0.32;}.cls-2{fill:#dd6955;}</style></defs><g id="Layer_2" data-name="Layer 2"><g id="contentbox"><g class="cls-1"><path class="cls-2" d="M407.57,268.86h37.08a10.36,10.36,0,0,0,8.87-5l28-46.68h35.56l-27.84,72.38h-44.6a10.34,10.34,0,0,0-7.31,3l-40.72,40.72L375.23,301.2Zm-21.21,86.3.06.09,28.95,43.44a10.35,10.35,0,0,0,8.6,4.6h55.65l-31,62H425.19l-23-46a10.32,10.32,0,0,0-16.57-2.66L308.4,304.36a10.35,10.35,0,0,0-8.52-4.48H223.55l-25.86-51.7h44.95l17.62,26.42a10.33,10.33,0,0,0,8.6,4.6h66.85ZM507.79,480.3l23.54,47.08h-70l23.54-47.08a10.34,10.34,0,0,0-4.62-13.88,10.47,10.47,0,0,0-4.63-1.09h-3.95l24.64-49.26L521,465.33h-4a10.35,10.35,0,0,0-9.25,15Zm-64.23,21.77-8-16.06h23.41l-22,44.1L430.36,517h3.95a10.35,10.35,0,0,0,9.25-15Zm-62.49-.81a10.33,10.33,0,0,0-8.8-4.9h-3.95L393,447.09l24.63,49.27h-3.95a10.34,10.34,0,0,0-9.25,15l23.54,47.08H358l23.53-47.08a10.31,10.31,0,0,0-.45-10.06ZM175.19,148.33a93.08,93.08,0,0,1,146,110.19H274.39L256.78,232.1a10.33,10.33,0,0,0-8.6-4.6H187.35L174.7,202.19a10.35,10.35,0,0,0-9.25-5.72H147.1A92.9,92.9,0,0,1,175.19,148.33Zm-16.13,68.83,48.85,97.69a10.34,10.34,0,0,0,9.25,5.71h77.28l80.27,116.75-22.3,44.6-21.12-28.58-32.5-65a10.32,10.32,0,0,0-17.09-2.09l-14.86-20.11a10.31,10.31,0,0,0-8.32-4.19H171.84L95.59,217.16Zm77.69,284.91L208,444.65h24.45L244,460.94l-5,10.1a10.34,10.34,0,0,0,9.25,15h3.95l-22,44.1L223.55,517h3.95a10.33,10.33,0,0,0,9.24-15Zm-62.5-.81a10.3,10.3,0,0,0-8.8-4.9H161.5l24.63-49.27,24.63,49.27h-3.95a10.32,10.32,0,0,0-9.24,15l23.54,47.08h-70l23.54-47.08a10.36,10.36,0,0,0-.45-10.06Zm72-72.91a10.34,10.34,0,0,0-8.45-4.38h-35l-20.68-41.36H253.3l17.81,24.08L254.48,440Zm31.37,41.89a10.36,10.36,0,0,0-8.8-4.91h-3.95l.34-.68,0-.06,24.26-48.52,24.63,49.26h-3.95a10.34,10.34,0,0,0-10.34,10.34A10.47,10.47,0,0,0,301,480.3l23.54,47.08H254.57l23.54-47.08a10.36,10.36,0,0,0-.45-10.06ZM72.39,599.76H0V186.13H55.8L177.18,418.84c-.1.17-.21.33-.3.51l-41.36,82.72a10.35,10.35,0,0,0,9.25,15h3.95l-6.53,13.07-22-44.1h4a10.34,10.34,0,0,0,9.25-15L92,388.32a10.34,10.34,0,0,0-18.49,0L32.11,471.05a10.34,10.34,0,0,0,9.25,15h4L21.77,533.09a10.34,10.34,0,0,0,9.25,15H72.39ZM70.84,470.24a10.34,10.34,0,0,0-8.8-4.91H58.09l24.64-49.26,24.63,49.26h-4a10.35,10.35,0,0,0-9.25,15l23.54,47.08H47.75L71.29,480.3A10.3,10.3,0,0,0,70.84,470.24Zm105,129.52H93.07v-51.7h40.14l-8,16.06a10.33,10.33,0,0,0,9.25,15h41.36Zm103.41,0H196.47V579.08h41.37a10.34,10.34,0,0,0,9.25-15l-8-16.06H279.2Zm20.68,0v-51.7h5.59l36.5,51.7Zm30.91-51.7H340l-3.83,7.66ZM327,486h2.78l12.34,16.7A10.32,10.32,0,0,0,351.58,517h1.09l1.71,2.31L349,530.11Zm55.66,113.75H367.28l-14.59-20.68h29.92Zm20.68,0V585.53l10.52,14.23Zm82.72,0H439.53l-15.29-20.68h20.41a10.34,10.34,0,0,0,9.25-15l-8-16.06H486Zm93.07,0H506.7v-51.7h41.36a10.35,10.35,0,0,0,9.25-15L533.77,486h45.31Zm0-134.43h-35l-31-62h66Zm0-82.72H429.5l-21.18-31.78,40.61-40.61h47.43a10.34,10.34,0,0,0,9.65-6.63l49.15-127.8h23.92Z"/><path class="cls-2" d="M156.16,97.18a10.34,10.34,0,1,0,18-10.28l-.06-.11L153.27,51a10.34,10.34,0,0,0-17.89,10.39Z"/><path class="cls-2" d="M423.94,206.3l-41.36.11a10.34,10.34,0,1,0,0,20.68h0L424,227a10.34,10.34,0,1,0,0-20.68Z"/><path class="cls-2" d="M304.73,100.55a10.34,10.34,0,0,0,14.11-3.82l20.59-35.88a10.34,10.34,0,1,0-17.94-10.29h0L300.9,86.44a10.34,10.34,0,0,0,3.83,14.11Z"/><path class="cls-2" d="M237.84,82.73a10.34,10.34,0,0,0,10.34-10.34v-62a10.34,10.34,0,1,0-20.68,0V72.39A10.34,10.34,0,0,0,237.84,82.73Z"/><path class="cls-2" d="M49.78,108.58a10.33,10.33,0,0,0,3.78,14.12l53.73,31a10.34,10.34,0,0,0,10.34-17.91l-53.73-31A10.34,10.34,0,0,0,49.78,108.58Z"/><path class="cls-2" d="M363.22,155.11a10.42,10.42,0,0,0,5.17-1.38l53.73-31a10.34,10.34,0,1,0-10.22-18l-.12.07-53.73,31a10.34,10.34,0,0,0,5.17,19.29Z"/><path class="cls-2" d="M527.38,93.07a10.34,10.34,0,0,0,10.34-10.34,10.34,10.34,0,0,1,20.68,0,10.34,10.34,0,0,0,10.34,10.34,10.34,10.34,0,1,1,0,20.68H527.38a10.34,10.34,0,0,1,0-20.68ZM475.67,62A10.34,10.34,0,0,0,486,51.7a10.35,10.35,0,0,1,20.69,0A10.34,10.34,0,0,0,517,62a10.29,10.29,0,0,1,6.23,2.09,31,31,0,0,0-4.9,9.59,31.07,31.07,0,0,0-14.09,9H475.67a10.35,10.35,0,0,1,0-20.69Z"/><path class="cls-2" d="M10.34,41.36A10.34,10.34,0,0,0,20.68,31a10.34,10.34,0,0,1,20.68,0A10.34,10.34,0,0,0,51.7,41.36,10.34,10.34,0,0,1,51.7,62H10.34a10.34,10.34,0,0,1,0-20.68Z"/></g></g></g></svg>