<svg xmlns="http://www.w3.org/2000/svg" viewBox="0 0 641 117.58"><defs><style>.cls-1{fill:#dd6955;stroke:#dd6955;stroke-miterlimit:10;}</style></defs><g id="Layer_2" data-name="Layer 2"><g id="Trail"><path id="path" class="cls-1" d="M.5,43.48C3.92,53.14,28.07,77.72,41,76.73,68,74.66,147.47-1.48,160.68.54c14,2.14,29.19,28.1,43,29.31,15,1.32,21.24-27.43,36.21-28.95,14.38-1.46,27.65,26.35,42,28.27,13.59,1.81,25.42-23.91,39-25.8,14.18-2,26.06,18.54,40.32,19.8,13.54,1.19,26.54-16.78,40-18.8,14.4-2.16,29.1,18.57,43.61,19.8,13.91,1.17,22.63-20.38,36.43-22.49,14.65-2.23,107.66,72,121.28,71.37,13.18-.58,25.45-33.5,38-29.57V91.76c-10.64,14.48-25.36,25.32-38.23,25.32-12.33,0-32.14-18.49-41.86-26.08-9.49-7.4-68.54-51.59-80.49-50.07S452,64.35,439.81,64s-26.52-25.54-38.67-24.26c-11.09,1.17-30,24.83-41,23.26-12.3-1.75-27.26-24-39.64-22.93C308.88,41,291.28,65.23,279.84,63c-12.15-2.38-27.63-24.52-40-23.67-14,1-25.94,23.53-39.9,22-12.49-1.38-27.07-19.18-39.91-20.63C147.37,39.26,93.5,82,83.51,89.63c-9.33,7.12-30.12,27.9-41.85,27.45-12-.47-41.16-13-41.16-25.25"/></g></g></svg>